<?xml version="1.0" standalone="no"?>
<!DOCTYPE svg PUBLIC "-//W3C//DTD SVG 20010904//EN"
 "http://www.w3.org/TR/2001/REC-SVG-20010904/DTD/svg10.dtd">
<svg version="1.0" xmlns="http://www.w3.org/2000/svg"
 width="500.000000pt" height="500.000000pt" viewBox="0 0 500.000000 500.000000"
 preserveAspectRatio="xMidYMid meet">

<g transform="translate(0.000000,500.000000) scale(0.100000,-0.100000)"
fill="#1f88c0" stroke="none">
<path d="M857 2873 c-4 -3 -7 -21 -7 -38 0 -30 -5 -35 -65 -64 -69 -34 -127
-92 -147 -148 -12 -32 -14 -33 -65 -33 -63 0 -73 -13 -73 -94 0 -70 15 -86 81
-86 33 0 49 -4 49 -13 0 -7 15 -35 34 -63 35 -52 108 -107 159 -119 22 -6 27
-13 27 -39 0 -46 16 -56 87 -56 76 0 83 9 83 104 l0 66 -63 0 c-73 0 -101 15
-95 51 3 22 8 24 78 29 l75 5 0 130 0 130 -69 5 c-76 6 -101 24 -80 58 9 13
28 18 83 20 l71 3 0 60 c0 91 -7 99 -89 99 -37 0 -71 -3 -74 -7z"/>
<path d="M1251 2861 c-6 -11 -11 -49 -11 -85 l0 -65 -67 -3 c-58 -3 -68 -6
-71 -22 -6 -29 25 -46 85 -46 l53 0 0 -135 0 -135 -53 0 c-60 0 -91 -17 -85
-46 3 -16 13 -19 71 -22 l67 -3 0 -64 c0 -35 4 -75 10 -89 9 -24 14 -26 73
-26 71 0 87 10 87 56 0 26 5 33 28 39 71 17 165 104 186 173 6 19 14 22 56 22
65 0 80 16 80 86 0 81 -10 94 -73 94 -51 0 -53 1 -65 33 -20 54 -78 113 -145
147 -57 28 -62 34 -67 68 l-5 37 -72 3 c-63 2 -73 0 -82 -17z"/>
<path d="M4070 2645 c0 -35 0 -35 45 -35 45 0 45 0 45 35 0 35 0 35 -45 35
-45 0 -45 0 -45 -35z"/>
<path d="M2770 2515 l0 -145 45 0 45 0 0 145 0 145 -45 0 -45 0 0 -145z"/>
<path d="M1944 2640 c-31 -12 -72 -66 -80 -105 -12 -67 37 -145 102 -161 36
-9 97 1 128 21 22 15 26 24 26 66 l0 49 -45 0 c-42 0 -45 -2 -45 -26 0 -21 -4
-25 -22 -22 -12 2 -28 14 -35 28 -19 39 3 65 56 65 33 0 46 5 61 25 26 33 25
37 -10 55 -31 16 -102 19 -136 5z"/>
<path d="M2520 2510 l0 -140 105 0 105 0 0 40 0 40 -61 0 c-77 0 -78 24 -1 28
52 3 52 3 52 38 l0 34 -56 0 c-73 0 -70 24 4 28 52 3 52 3 52 38 l0 34 -100 0
-100 0 0 -140z"/>
<path d="M3170 2615 c0 -24 -5 -35 -15 -35 -10 0 -15 -11 -15 -35 0 -24 5 -35
15 -35 11 0 15 -11 15 -35 0 -42 22 -90 45 -99 9 -3 30 -6 46 -6 26 0 29 3 29
34 0 21 -6 36 -15 40 -9 3 -15 18 -15 36 0 20 5 30 15 30 10 0 15 11 15 35 0
24 -5 35 -15 35 -10 0 -15 11 -15 35 0 35 0 35 -45 35 -45 0 -45 0 -45 -35z"/>
<path d="M2189 2551 c-27 -28 -34 -50 -29 -95 9 -86 140 -116 203 -46 39 44
37 92 -7 136 -30 30 -40 34 -86 34 -44 0 -56 -4 -81 -29z m109 -74 c4 -33 -22
-47 -45 -24 -22 21 -8 59 20 55 16 -2 23 -11 25 -31z"/>
<path d="M2941 2554 c-83 -70 -19 -196 92 -181 50 7 62 18 47 46 -8 16 -17 20
-31 16 -22 -7 -59 2 -59 16 0 5 30 9 66 9 l67 0 -7 33 c-15 79 -113 114 -175
61z m89 -49 c0 -8 -9 -15 -20 -15 -11 0 -20 7 -20 15 0 8 9 15 20 15 11 0 20
-7 20 -15z"/>
<path d="M3340 2475 l0 -105 45 0 45 0 0 54 c0 60 19 91 50 81 13 -4 19 2 24
26 3 17 6 35 6 40 0 14 -44 11 -59 -3 -11 -10 -14 -10 -18 0 -3 7 -23 12 -49
12 l-44 0 0 -105z"/>
<path d="M3564 2546 c-44 -44 -46 -92 -6 -137 57 -64 180 -44 200 33 21 78
-28 138 -110 138 -44 0 -54 -4 -84 -34z m111 -57 c8 -26 -16 -54 -39 -46 -16
6 -22 48 -9 60 14 14 42 6 48 -14z"/>
<path d="M3810 2475 l0 -105 40 0 40 0 0 54 c0 63 7 86 25 86 18 0 25 -23 25
-86 l0 -54 40 0 40 0 0 83 c0 59 -5 89 -16 105 -16 24 -53 29 -84 12 -13 -7
-21 -7 -25 0 -3 5 -24 10 -46 10 l-39 0 0 -105z"/>
<path d="M4070 2475 l0 -105 45 0 45 0 0 105 0 105 -45 0 -45 0 0 -105z"/>
<path d="M4234 2546 c-48 -48 -47 -95 1 -143 33 -33 39 -35 86 -31 64 6 77 19
59 53 -11 21 -19 25 -40 20 -33 -7 -55 15 -45 46 6 18 13 20 39 16 27 -4 34
-1 48 23 15 27 15 28 -9 39 -13 6 -42 11 -64 11 -33 0 -48 -7 -75 -34z"/>
</g>
</svg>
